<svg width="20" height="20" viewBox="0 0 20 20" fill="none" xmlns="http://www.w3.org/2000/svg">
<path fill-rule="evenodd" clip-rule="evenodd" d="M4 8.25C4.26522 8.25 4.51957 8.14464 4.70711 7.95711C4.89464 7.76957 5 7.51522 5 7.25C5 6.98478 4.89464 6.73043 4.70711 6.54289C4.51957 6.35536 4.26522 6.25 4 6.25C3.73478 6.25 3.48043 6.35536 3.29289 6.54289C3.10536 6.73043 3 6.98478 3 7.25C3 7.51522 3.10536 7.76957 3.29289 7.95711C3.48043 8.14464 3.73478 8.25 4 8.25ZM4 10.25C4.79565 10.25 5.55871 9.93393 6.12132 9.37132C6.68393 8.80871 7 8.04565 7 7.25C7 6.45435 6.68393 5.69129 6.12132 5.12868C5.55871 4.56607 4.79565 4.25 4 4.25C3.20435 4.25 2.44129 4.56607 1.87868 5.12868C1.31607 5.69129 1 6.45435 1 7.25C1 8.04565 1.31607 8.80871 1.87868 9.37132C2.44129 9.93393 3.20435 10.25 4 10.25Z" fill="#7A7B82"/>
<path fill-rule="evenodd" clip-rule="evenodd" d="M4.04999 11C3.65216 11 3.27063 11.158 2.98933 11.4393C2.70802 11.7206 2.54999 12.1022 2.54999 12.5V14C2.54999 14.2652 2.44463 14.5196 2.25709 14.7071C2.06956 14.8946 1.8152 15 1.54999 15C1.28477 15 1.03042 14.8946 0.842881 14.7071C0.655345 14.5196 0.549988 14.2652 0.549988 14V12.5C0.549988 11.5717 0.918737 10.6815 1.57511 10.0251C2.23149 9.36875 3.12173 9 4.04999 9C4.97825 9 5.86848 9.36875 6.52486 10.0251C7.18124 10.6815 7.54999 11.5717 7.54999 12.5V14C7.54999 14.2652 7.44463 14.5196 7.25709 14.7071C7.06956 14.8946 6.8152 15 6.54999 15C6.28477 15 6.03042 14.8946 5.84288 14.7071C5.65534 14.5196 5.54999 14.2652 5.54999 14V12.5C5.54999 12.1022 5.39195 11.7206 5.11065 11.4393C4.82934 11.158 4.44781 11 4.04999 11ZM16 8.25C15.7348 8.25 15.4804 8.14464 15.2929 7.95711C15.1053 7.76957 15 7.51522 15 7.25C15 6.98478 15.1053 6.73043 15.2929 6.54289C15.4804 6.35536 15.7348 6.25 16 6.25C16.2652 6.25 16.5196 6.35536 16.7071 6.54289C16.8946 6.73043 17 6.98478 17 7.25C17 7.51522 16.8946 7.76957 16.7071 7.95711C16.5196 8.14464 16.2652 8.25 16 8.25ZM16 10.25C15.2043 10.25 14.4413 9.93393 13.8787 9.37132C13.3161 8.80871 13 8.04565 13 7.25C13 6.45435 13.3161 5.69129 13.8787 5.12868C14.4413 4.56607 15.2043 4.25 16 4.25C16.7956 4.25 17.5587 4.56607 18.1213 5.12868C18.6839 5.69129 19 6.45435 19 7.25C19 8.04565 18.6839 8.80871 18.1213 9.37132C17.5587 9.93393 16.7956 10.25 16 10.25Z" fill="#7A7B82"/>
<path fill-rule="evenodd" clip-rule="evenodd" d="M15.95 11C16.3478 11 16.7294 11.158 17.0107 11.4393C17.292 11.7206 17.45 12.1022 17.45 12.5V14C17.45 14.2652 17.5554 14.5196 17.7429 14.7071C17.9304 14.8946 18.1848 15 18.45 15C18.7152 15 18.9696 14.8946 19.1571 14.7071C19.3447 14.5196 19.45 14.2652 19.45 14V12.5C19.45 11.5717 19.0813 10.6815 18.4249 10.0251C17.7685 9.36875 16.8783 9 15.95 9C15.0218 9 14.1315 9.36875 13.4751 10.0251C12.8188 10.6815 12.45 11.5717 12.45 12.5V14C12.45 14.2652 12.5554 14.5196 12.7429 14.7071C12.9304 14.8946 13.1848 15 13.45 15C13.7152 15 13.9696 14.8946 14.1571 14.7071C14.3447 14.5196 14.45 14.2652 14.45 14V12.5C14.45 12.1022 14.608 11.7206 14.8894 11.4393C15.1707 11.158 15.5522 11 15.95 11Z" fill="#7A7B82"/>
<path fill-rule="evenodd" clip-rule="evenodd" d="M10.05 13.75C9.38695 13.75 8.75106 14.0134 8.28222 14.4822C7.81338 14.9511 7.54999 15.587 7.54999 16.25V17.75C7.54999 18.0152 7.44463 18.2696 7.25709 18.4571C7.06956 18.6446 6.8152 18.75 6.54999 18.75C6.28477 18.75 6.03042 18.6446 5.84288 18.4571C5.65534 18.2696 5.54999 18.0152 5.54999 17.75V16.25C5.54999 15.0565 6.02409 13.9119 6.86801 13.068C7.71192 12.2241 8.85651 11.75 10.05 11.75C11.2435 11.75 12.3881 12.2241 13.232 13.068C14.0759 13.9119 14.55 15.0565 14.55 16.25V17.75C14.55 18.0152 14.4446 18.2696 14.2571 18.4571C14.0696 18.6446 13.8152 18.75 13.55 18.75C13.2848 18.75 13.0304 18.6446 12.8429 18.4571C12.6553 18.2696 12.55 18.0152 12.55 17.75V16.25C12.55 15.587 12.2866 14.9511 11.8178 14.4822C11.3489 14.0134 10.713 13.75 10.05 13.75Z" fill="#7A7B82"/>
<path fill-rule="evenodd" clip-rule="evenodd" d="M10 11C10.2652 11 10.5196 10.8946 10.7071 10.7071C10.8946 10.5196 11 10.2652 11 10C11 9.73478 10.8946 9.48043 10.7071 9.29289C10.5196 9.10536 10.2652 9 10 9C9.73478 9 9.48043 9.10536 9.29289 9.29289C9.10536 9.48043 9 9.73478 9 10C9 10.2652 9.10536 10.5196 9.29289 10.7071C9.48043 10.8946 9.73478 11 10 11ZM10 13C10.7956 13 11.5587 12.6839 12.1213 12.1213C12.6839 11.5587 13 10.7956 13 10C13 9.20435 12.6839 8.44129 12.1213 7.87868C11.5587 7.31607 10.7956 7 10 7C9.20435 7 8.44129 7.31607 7.87868 7.87868C7.31607 8.44129 7 9.20435 7 10C7 10.7956 7.31607 11.5587 7.87868 12.1213C8.44129 12.6839 9.20435 13 10 13Z" fill="#7A7B82"/>
</svg>
