<svg width="28" height="28" viewBox="0 0 28 28" fill="none" xmlns="http://www.w3.org/2000/svg">
<g clip-path="url(#clip0_326_5195)">
<path d="M13.9885 2.33333C7.5485 2.33333 2.3335 7.56 2.3335 14C2.3335 20.44 7.5485 25.6667 13.9885 25.6667C20.4402 25.6667 25.6668 20.44 25.6668 14C25.6668 7.56 20.4402 2.33333 13.9885 2.33333ZM14.0002 23.3333C8.8435 23.3333 4.66683 19.1567 4.66683 14C4.66683 8.84333 8.8435 4.66666 14.0002 4.66666C19.1568 4.66666 23.3335 8.84333 23.3335 14C23.3335 19.1567 19.1568 23.3333 14.0002 23.3333Z" fill="black"/>
<path d="M14.5835 8.16667H12.8335V15.1667L18.9585 18.8417L19.8335 17.4067L14.5835 14.2917V8.16667Z" fill="black"/>
</g>
<defs>
<clipPath id="clip0_326_5195">
<rect width="28" height="28" fill="white"/>
</clipPath>
</defs>
</svg>
