<svg width="49" height="48" viewBox="0 0 49 48" fill="none" xmlns="http://www.w3.org/2000/svg">
<rect x="1" y="0.5" width="47" height="47" rx="23.5" stroke="#001742"/>
<path d="M37.574 21.3887H36.5V21.3334H24.5V26.6667H32.0353C30.936 29.7714 27.982 32.0001 24.5 32.0001C20.082 32.0001 16.5 28.4181 16.5 24.0001C16.5 19.5821 20.082 16.0001 24.5 16.0001C26.5393 16.0001 28.3946 16.7694 29.8073 18.0261L33.5786 14.2547C31.1973 12.0354 28.012 10.6667 24.5 10.6667C17.1366 10.6667 11.1666 16.6367 11.1666 24.0001C11.1666 31.3634 17.1366 37.3334 24.5 37.3334C31.8633 37.3334 37.8333 31.3634 37.8333 24.0001C37.8333 23.1061 37.7413 22.2334 37.574 21.3887Z" fill="#FFC107"/>
<path d="M12.704 17.7941L17.0846 21.0067C18.27 18.0721 21.1406 16.0001 24.5 16.0001C26.5393 16.0001 28.3946 16.7694 29.8073 18.0261L33.5786 14.2547C31.1973 12.0354 28.012 10.6667 24.5 10.6667C19.3786 10.6667 14.9373 13.5581 12.704 17.7941Z" fill="#FF3D00"/>
<path d="M24.5 37.3333C27.944 37.3333 31.0733 36.0153 33.4393 33.872L29.3127 30.38C27.974 31.394 26.31 32 24.5 32C21.032 32 18.0873 29.7886 16.978 26.7026L12.63 30.0526C14.8367 34.3706 19.318 37.3333 24.5 37.3333Z" fill="#4CAF50"/>
<path d="M37.574 21.3886H36.5V21.3333H24.5V26.6666H32.0353C31.5073 28.1579 30.548 29.4439 29.3107 30.3806L29.3127 30.3793L33.4393 33.8713C33.1473 34.1366 37.8333 30.6666 37.8333 23.9999C37.8333 23.1059 37.7413 22.2333 37.574 21.3886Z" fill="#1976D2"/>
</svg>
