<svg width="20" height="16" viewBox="0 0 20 16" fill="none" xmlns="http://www.w3.org/2000/svg">
<g clip-path="url(#clip0_70_1987)">
<path d="M19.25 0H13.25C12.838 0 12.261 0.239 11.97 0.53L4.531 7.969C4.4613 8.03865 4.40601 8.12135 4.36829 8.21238C4.33057 8.3034 4.31116 8.40097 4.31116 8.4995C4.31116 8.59803 4.33057 8.6956 4.36829 8.78662C4.40601 8.87765 4.4613 8.96035 4.531 9.03L10.97 15.469C11.0396 15.5387 11.1223 15.594 11.2134 15.6317C11.3044 15.6694 11.402 15.6888 11.5005 15.6888C11.599 15.6888 11.6966 15.6694 11.7876 15.6317C11.8786 15.594 11.9613 15.5387 12.031 15.469L19.47 8.03C19.762 7.738 20 7.162 20 6.75V0.75C20 0.551088 19.921 0.360322 19.7803 0.21967C19.6397 0.0790176 19.4489 0 19.25 0ZM15.5 6C15.3029 5.99993 15.1078 5.96106 14.9258 5.88559C14.7438 5.81012 14.5784 5.69954 14.4391 5.56016C14.2998 5.42078 14.1894 5.25533 14.114 5.07325C14.0387 4.89118 13.9999 4.69605 14 4.499C14.0001 4.30195 14.0389 4.10685 14.1144 3.92482C14.1899 3.7428 14.3005 3.57742 14.4398 3.43813C14.5792 3.29884 14.7447 3.18837 14.9267 3.11303C15.1088 3.03768 15.3039 2.99893 15.501 2.999C15.899 2.99913 16.2806 3.15735 16.5619 3.43884C16.8432 3.72033 17.0011 4.10204 17.001 4.5C17.0009 4.89796 16.8427 5.27956 16.5612 5.56087C16.2797 5.84217 15.898 6.00013 15.5 6Z" fill="#7A7B82"/>
<path d="M2 8.5L10.5 0H9.25C8.838 0 8.261 0.239 7.97 0.53L0.530997 7.969C0.461302 8.03865 0.406015 8.12135 0.368294 8.21238C0.330572 8.3034 0.311157 8.40097 0.311157 8.4995C0.311157 8.59803 0.330572 8.6956 0.368294 8.78662C0.406015 8.87765 0.461302 8.96035 0.530997 9.03L6.97 15.469C7.03965 15.5387 7.12235 15.594 7.21337 15.6317C7.3044 15.6694 7.40197 15.6888 7.5005 15.6888C7.59903 15.6888 7.6966 15.6694 7.78762 15.6317C7.87865 15.594 7.96135 15.5387 8.031 15.469L8.501 14.999L2 8.5Z" fill="#7A7B82"/>
</g>
<defs>
<clipPath id="clip0_70_1987">
<rect width="20" height="16" fill="white"/>
</clipPath>
</defs>
</svg>
