<svg width="24" height="24" viewBox="0 0 24 24" fill="none" xmlns="http://www.w3.org/2000/svg">
<g clip-path="url(#clip0_70_1791)">
<path d="M11.5102 12.0652C11.0722 12.4732 7.56185 15.879 7.56185 15.879L8.49898 16.803C8.49898 16.803 11.6179 13.9245 12.0862 13.4891C12.2021 13.3819 12.3982 13.1775 12.7609 13.1775H23.3977V11.7045H12.3911C12.0694 11.7049 11.7645 11.8312 11.5102 12.0652ZM17.8121 4.05861C19.0594 4.05861 19.74 3.19499 19.74 2.13074C19.7399 1.74955 19.6268 1.37694 19.415 1.06002C19.2032 0.7431 18.9021 0.496106 18.5499 0.350265C18.1977 0.204423 17.8102 0.166284 17.4363 0.240669C17.0625 0.315054 16.7191 0.498623 16.4495 0.768166C16.18 1.03771 15.9964 1.38112 15.922 1.75499C15.8476 2.12885 15.8858 2.51637 16.0316 2.86856C16.1775 3.22075 16.4245 3.52179 16.7414 3.73362C17.0583 3.94544 17.4309 4.05854 17.8121 4.05861ZM14.9539 7.37136H15.6004L14.6531 10.7745H20.9719L20.0239 7.37136H20.6704L21.6536 10.7745H23.3239L21.9814 6.25874C21.804 5.63511 21.0154 4.53036 19.65 4.53036H15.9742C14.6096 4.53036 13.8217 5.63511 13.6429 6.25874L12.3022 10.7745H13.9725L14.9539 7.37136ZM9.4886 10.596L7.79173 7.43211C7.79173 7.43211 7.69198 7.28136 7.5071 7.37099C7.34098 7.45124 7.41598 7.63836 7.41598 7.63836L7.97885 8.71274L8.3291 9.38211L7.92523 9.20024C7.20973 8.87774 6.81523 8.74011 6.65698 8.66924C6.62885 8.65611 6.4901 8.57999 6.4241 8.43486C6.2366 8.01561 5.43598 5.98911 5.25635 5.54099C5.10448 5.16186 4.72985 4.62336 3.95998 4.43286C3.0836 4.21611 2.2001 4.76886 1.9916 5.64824L0.795726 10.6886C0.689226 11.0951 0.506226 12.1946 0.506226 12.6581L0.514101 22.5034C0.520101 23.334 1.11973 24.0037 1.9496 24C2.77835 23.9974 3.34573 23.322 3.3431 22.4925L3.34123 14.1517L4.6166 8.76861C4.76548 9.13274 4.94998 9.57636 5.01035 9.68286C5.15398 9.93411 5.29573 10.107 5.58523 10.2431C5.58523 10.2431 7.25435 10.9339 7.90048 11.2286C8.08503 11.2989 8.28723 11.3083 8.47754 11.2556C8.66785 11.2028 8.83632 11.0906 8.95835 10.9354L9.0476 10.7505L9.07835 10.8094C9.07835 10.8094 9.26848 11.1442 9.54935 11.1596C9.62998 10.9042 9.48898 10.596 9.48898 10.596H9.4886ZM6.9086 2.11424C6.9086 2.36744 6.85873 2.61815 6.76184 2.85208C6.66494 3.086 6.52292 3.29855 6.34388 3.47759C6.16485 3.65662 5.9523 3.79864 5.71838 3.89554C5.48445 3.99243 5.23373 4.0423 4.98054 4.0423C4.72734 4.0423 4.47662 3.99243 4.2427 3.89554C4.00878 3.79864 3.79623 3.65662 3.61719 3.47759C3.43815 3.29855 3.29613 3.086 3.19924 2.85208C3.10235 2.61815 3.05248 2.36744 3.05248 2.11424C3.05954 1.60754 3.26579 1.12399 3.6266 0.768176C3.98741 0.41236 4.47379 0.212879 4.98054 0.212879C5.48728 0.212879 5.97366 0.41236 6.33448 0.768176C6.69529 1.12399 6.90153 1.60754 6.9086 2.11424Z" fill="#7A7B82"/>
<path d="M7.77707 14.6952L11.5338 11.1987L11.0456 10.6748L7.28882 14.1717L7.77707 14.6952Z" fill="#7A7B82"/>
</g>
<defs>
<clipPath id="clip0_70_1791">
<rect width="24" height="24" fill="white"/>
</clipPath>
</defs>
</svg>
