<svg width="16" height="16" viewBox="0 0 16 16" fill="none" xmlns="http://www.w3.org/2000/svg">
<path d="M10.0001 2.6665C9.29284 2.6665 8.61456 2.94746 8.11446 3.44755C7.61437 3.94765 7.33341 4.62593 7.33341 5.33317C7.33341 6.04041 7.61437 6.71869 8.11446 7.21879C8.61456 7.71889 9.29284 7.99984 10.0001 7.99984C10.7073 7.99984 11.3856 7.71889 11.8857 7.21879C12.3858 6.71869 12.6667 6.04041 12.6667 5.33317C12.6667 4.62593 12.3858 3.94765 11.8857 3.44755C11.3856 2.94746 10.7073 2.6665 10.0001 2.6665ZM10.0001 3.93317C10.1839 3.93317 10.366 3.96938 10.5358 4.03974C10.7057 4.1101 10.86 4.21322 10.99 4.34322C11.12 4.47322 11.2232 4.62756 11.2935 4.79741C11.3639 4.96727 11.4001 5.14932 11.4001 5.33317C11.4001 5.51702 11.3639 5.69907 11.2935 5.86893C11.2232 6.03878 11.12 6.19312 10.99 6.32312C10.86 6.45312 10.7057 6.55625 10.5358 6.6266C10.366 6.69696 10.1839 6.73317 10.0001 6.73317C9.81623 6.73317 9.63418 6.69696 9.46432 6.6266C9.29447 6.55625 9.14013 6.45312 9.01013 6.32312C8.88013 6.19312 8.77701 6.03878 8.70665 5.86893C8.63629 5.69907 8.60008 5.51702 8.60008 5.33317C8.60008 4.96187 8.74758 4.60577 9.01013 4.34322C9.27268 4.08067 9.62878 3.93317 10.0001 3.93317ZM2.66675 4.6665V6.6665H0.666748V7.99984H2.66675V9.99984H4.00008V7.99984H6.00008V6.6665H4.00008V4.6665H2.66675ZM10.0001 8.6665C8.22008 8.6665 4.66675 9.55317 4.66675 11.3332V13.3332H15.3334V11.3332C15.3334 9.55317 11.7801 8.6665 10.0001 8.6665ZM10.0001 9.93317C11.9801 9.93317 14.0667 10.9065 14.0667 11.3332V12.0665H5.93341V11.3332C5.93341 10.9065 8.00008 9.93317 10.0001 9.93317Z" fill="black"/>
</svg>
