<svg width="24" height="24" viewBox="0 0 24 24" fill="none" xmlns="http://www.w3.org/2000/svg">
<path d="M5 17.749V13.983L9.06 16.636C9.9344 17.2065 10.9559 17.5103 12 17.5103C13.0441 17.5103 14.0656 17.2065 14.94 16.636L19 13.983V17.749C19 17.9112 18.9474 18.0691 18.85 18.199L18.849 18.201L18.848 18.202L18.845 18.206L18.836 18.216L18.824 18.232L18.811 18.249L18.725 18.35C18.6244 18.4647 18.5186 18.5748 18.408 18.68C18.131 18.947 17.718 19.294 17.158 19.638C16.036 20.328 14.338 20.999 12 20.999C9.662 20.999 7.964 20.329 6.841 19.638C6.39149 19.3643 5.97245 19.0435 5.591 18.681C5.43905 18.5354 5.29643 18.3804 5.164 18.217L5.155 18.207L5.152 18.202V18.2C5.05456 18.07 5.00129 17.9113 5 17.749ZM22.16 10.128L14.12 15.381C13.4895 15.7923 12.7529 16.0113 12 16.0113C11.2471 16.0113 10.5105 15.7923 9.88 15.381L3 10.885V16.249C3 16.4479 2.92098 16.6386 2.78033 16.7793C2.63968 16.9199 2.44891 16.999 2.25 16.999C2.05109 16.999 1.86032 16.9199 1.71967 16.7793C1.57902 16.6386 1.5 16.4479 1.5 16.249V9.99895C1.5 9.91029 1.51433 9.82695 1.543 9.74895C1.48668 9.58956 1.48587 9.41581 1.54069 9.2559C1.5955 9.09598 1.70274 8.95928 1.845 8.86795L9.909 3.69795C10.5333 3.29855 11.2589 3.0863 12 3.0863C12.7411 3.0863 13.4667 3.29855 14.091 3.69795L22.155 8.86795C22.2603 8.93557 22.347 9.02847 22.4073 9.13818C22.4675 9.2479 22.4993 9.37094 22.4998 9.49609C22.5003 9.62125 22.4695 9.74454 22.4101 9.85473C22.3508 9.96492 22.2648 10.0585 22.16 10.127" fill="#7A7B82"/>
</svg>
