<svg width="16" height="16" viewBox="0 0 16 16" fill="none" xmlns="http://www.w3.org/2000/svg">
<path d="M7.99992 1.3335C11.6819 1.3335 14.6666 4.31816 14.6666 8.00016C14.6666 11.6822 11.6819 14.6668 7.99992 14.6668C4.31792 14.6668 1.33325 11.6822 1.33325 8.00016C1.33325 4.31816 4.31792 1.3335 7.99992 1.3335ZM7.99992 2.66683C6.58543 2.66683 5.22888 3.22873 4.22868 4.22893C3.22849 5.22912 2.66659 6.58567 2.66659 8.00016C2.66659 9.41465 3.22849 10.7712 4.22868 11.7714C5.22888 12.7716 6.58543 13.3335 7.99992 13.3335C9.41441 13.3335 10.771 12.7716 11.7712 11.7714C12.7713 10.7712 13.3333 9.41465 13.3333 8.00016C13.3333 6.58567 12.7713 5.22912 11.7712 4.22893C10.771 3.22873 9.41441 2.66683 7.99992 2.66683ZM4.99992 7.00016C5.26514 7.00016 5.51949 7.10552 5.70703 7.29306C5.89456 7.48059 5.99992 7.73495 5.99992 8.00016C5.99992 8.26538 5.89456 8.51973 5.70703 8.70727C5.51949 8.89481 5.26514 9.00016 4.99992 9.00016C4.7347 9.00016 4.48035 8.89481 4.29281 8.70727C4.10528 8.51973 3.99992 8.26538 3.99992 8.00016C3.99992 7.73495 4.10528 7.48059 4.29281 7.29306C4.48035 7.10552 4.7347 7.00016 4.99992 7.00016ZM7.99992 7.00016C8.26514 7.00016 8.51949 7.10552 8.70703 7.29306C8.89456 7.48059 8.99992 7.73495 8.99992 8.00016C8.99992 8.26538 8.89456 8.51973 8.70703 8.70727C8.51949 8.89481 8.26514 9.00016 7.99992 9.00016C7.7347 9.00016 7.48035 8.89481 7.29281 8.70727C7.10528 8.51973 6.99992 8.26538 6.99992 8.00016C6.99992 7.73495 7.10528 7.48059 7.29281 7.29306C7.48035 7.10552 7.7347 7.00016 7.99992 7.00016ZM10.9999 7.00016C11.2651 7.00016 11.5195 7.10552 11.707 7.29306C11.8946 7.48059 11.9999 7.73495 11.9999 8.00016C11.9999 8.26538 11.8946 8.51973 11.707 8.70727C11.5195 8.89481 11.2651 9.00016 10.9999 9.00016C10.7347 9.00016 10.4803 8.89481 10.2928 8.70727C10.1053 8.51973 9.99992 8.26538 9.99992 8.00016C9.99992 7.73495 10.1053 7.48059 10.2928 7.29306C10.4803 7.10552 10.7347 7.00016 10.9999 7.00016Z" fill="black"/>
</svg>
