<svg width="86" height="86" viewBox="0 0 86 86" fill="none" xmlns="http://www.w3.org/2000/svg">
<path d="M9.2199 30.3258L40.248 14.8136C40.5462 14.6647 40.875 14.5872 41.2083 14.5872C41.5417 14.5872 41.8704 14.6647 42.1687 14.8136L73.1967 30.3294C73.5536 30.5081 73.8536 30.7825 74.0633 31.1221C74.273 31.4616 74.3841 31.8528 74.3841 32.2518C74.3841 32.6509 74.273 33.0421 74.0633 33.3816C73.8536 33.7212 73.5536 33.9956 73.1967 34.1743L42.1687 49.6866C41.8704 49.8354 41.5417 49.9129 41.2083 49.9129C40.875 49.9129 40.5462 49.8354 40.248 49.6866L9.2199 34.1707C8.86307 33.992 8.56301 33.7176 8.3533 33.378C8.1436 33.0385 8.03253 32.6473 8.03253 32.2483C8.03253 31.8492 8.1436 31.458 8.3533 31.1185C8.56301 30.7789 8.86307 30.5045 9.2199 30.3258Z" fill="#001742" stroke="#001742" stroke-width="1.5" stroke-linecap="round" stroke-linejoin="round"/>
<path d="M80.625 46.5834V34.0417L73.4583 30.4584M16.125 37.625V57.018C16.1247 58.3739 16.5091 59.702 17.2334 60.8482C17.9578 61.9943 18.9924 62.9115 20.2172 63.4931L38.1338 72C39.0946 72.4562 40.1448 72.6929 41.2083 72.6929C42.2719 72.6929 43.3221 72.4562 44.2828 72L62.1995 63.4931C63.4242 62.9115 64.4589 61.9943 65.1832 60.8482C65.9076 59.702 66.2919 58.3739 66.2917 57.018V37.625" stroke="#001742" stroke-width="1.5" stroke-linecap="round" stroke-linejoin="round"/>
</svg>
